<?xml version="1.0" encoding="UTF-8"?>
<!DOCTYPE svg PUBLIC "-//W3C//DTD SVG 1.1//EN" "http://www.w3.org/Graphics/SVG/1.1/DTD/svg11.dtd">
<svg xmlns="http://www.w3.org/2000/svg" version="1.1" width="846px" height="436px" style="shape-rendering:geometricPrecision; text-rendering:geometricPrecision; image-rendering:optimizeQuality; fill-rule:evenodd; clip-rule:evenodd" xmlns:xlink="http://www.w3.org/1999/xlink">
<g><path style="opacity:1" fill="#3c2925" d="M 786.5,162.5 C 785.657,160.513 784.99,158.346 784.5,156C 785.253,151.377 786.087,146.877 787,142.5C 782.026,143.312 777.526,141.479 773.5,137C 772.207,136.51 770.873,136.343 769.5,136.5C 769.093,142.161 768.76,147.828 768.5,153.5C 766.403,153.003 764.57,152.67 763,152.5C 761.961,146.065 761.127,139.731 760.5,133.5C 760.167,133.5 759.833,133.5 759.5,133.5C 759.5,131.833 759.5,130.167 759.5,128.5C 755.944,128.642 752.61,129.476 749.5,131C 746.118,131.824 742.784,131.657 739.5,130.5C 735.255,126.843 731.588,122.676 728.5,118C 724.866,115.706 721.533,113.206 718.5,110.5C 707.386,105.807 695.72,103.14 683.5,102.5C 665.837,100.599 648.17,101.432 630.5,105C 620.491,107.913 610.824,111.579 601.5,116C 592.434,122.194 583.767,128.86 575.5,136C 567.87,135.688 560.203,135.522 552.5,135.5C 552.167,135.5 551.833,135.5 551.5,135.5C 545.871,136.709 540.205,137.709 534.5,138.5C 531.626,132.786 527.459,128.12 522,124.5C 519.714,119.279 515.881,115.779 510.5,114C 508.539,111.037 506.206,108.371 503.5,106C 495.167,100.333 486.833,94.6667 478.5,89C 472.931,87.883 468.264,85.2163 464.5,81C 455.677,78.0591 447.01,74.7258 438.5,71C 433.41,70.573 428.41,69.7396 423.5,68.5C 411.071,65.6313 398.738,65.9646 386.5,69.5C 379.944,70.5557 373.611,72.3891 367.5,75C 355.681,82.997 345.015,92.1637 335.5,102.5C 334.624,102.631 333.957,102.298 333.5,101.5C 334.696,97.3806 336.196,93.3806 338,89.5C 342.575,83.1677 347.409,77.1677 352.5,71.5C 354.456,69.8861 356.456,68.2194 358.5,66.5C 348.375,61.5502 338.042,57.0502 327.5,53C 320.83,51.4948 314.497,49.1614 308.5,46C 295.928,42.9227 283.428,39.4227 271,35.5C 266.539,34.6551 262.039,34.3218 257.5,34.5C 250.921,31.67 243.921,30.17 236.5,30C 209.879,28.9281 183.879,32.2614 158.5,40C 154.466,41.7796 150.466,43.613 146.5,45.5C 138.184,47.4935 130.184,50.3268 122.5,54C 100.012,66.3014 78.679,80.468 58.5,96.5C 47.988,106.523 39.1547,117.857 32,130.5C 27.9026,140.392 26.5693,150.726 28,161.5C 28.956,162.579 29.7894,163.745 30.5,165C 34.2364,165.61 37.9031,165.277 41.5,164C 55.4561,156.861 68.4561,148.361 80.5,138.5C 83.1267,137.169 85.46,135.336 87.5,133C 99.3304,127.747 110.664,121.413 121.5,114C 126.446,112.194 131.112,109.861 135.5,107C 138.353,105.57 141.353,104.737 144.5,104.5C 142.659,106.754 140.492,108.754 138,110.5C 137.517,111.448 137.351,112.448 137.5,113.5C 134.757,113.077 133.424,114.244 133.5,117C 135.548,119.533 136.881,122.366 137.5,125.5C 113.419,143.052 88.7528,159.885 63.5,176C 57.7357,179.216 51.7357,181.883 45.5,184C 28.909,187.621 17.0757,181.787 10,166.5C 6.24802,146.923 9.58135,128.59 20,111.5C 29.3599,95.1383 41.8599,81.6383 57.5,71C 79.7867,55.7711 103.62,43.2711 129,33.5C 131.057,34.1397 133.223,33.9731 135.5,33C 148.534,25.432 162.534,20.432 177.5,18C 202.221,12.6911 227.221,11.0244 252.5,13C 266.484,13.9969 280.151,16.6635 293.5,21C 319.03,29.6761 344.363,38.8428 369.5,48.5C 391.694,41.2 414.028,40.7 436.5,47C 464.576,58.8635 490.909,73.5302 515.5,91C 524.804,99.3027 533.804,107.969 542.5,117C 555.929,120.111 567.596,117.111 577.5,108C 612.536,87.7925 650.203,80.1258 690.5,85C 711.166,87.1682 728.833,95.5016 743.5,110C 752.92,115.017 762.92,118.351 773.5,120C 776.759,121.211 779.592,123.044 782,125.5C 784.94,131.046 787.606,136.713 790,142.5C 790.667,146.5 790.667,150.5 790,154.5C 789.613,157.599 788.446,160.266 786.5,162.5 Z"/></g>
<g><path style="opacity:1" fill="#db986e" d="M 257.5,34.5 C 262.039,34.3218 266.539,34.6551 271,35.5C 283.428,39.4227 295.928,42.9227 308.5,46C 314.497,49.1614 320.83,51.4948 327.5,53C 338.042,57.0502 348.375,61.5502 358.5,66.5C 356.456,68.2194 354.456,69.8861 352.5,71.5C 341.194,69.0083 330.527,64.8416 320.5,59C 307.646,55.6337 294.979,51.6337 282.5,47C 261.691,41.887 240.691,38.7203 219.5,37.5C 211.01,36.6704 202.343,36.1704 193.5,36C 194.833,35.6667 196.167,35.3333 197.5,35C 196.167,34.3333 196.167,33.6667 197.5,33C 203.5,32.5 209.5,32 215.5,31.5C 229.536,32.1698 243.536,33.1698 257.5,34.5 Z"/></g>
<g><path style="opacity:1" fill="#c58662" d="M 257.5,34.5 C 243.536,33.1698 229.536,32.1698 215.5,31.5C 209.5,32 203.5,32.5 197.5,33C 196.167,33.6667 196.167,34.3333 197.5,35C 196.167,35.3333 194.833,35.6667 193.5,36C 202.343,36.1704 211.01,36.6704 219.5,37.5C 207.8,37.268 196.134,37.768 184.5,39C 172.204,41.8841 160.037,45.0508 148,48.5C 145.72,48.1058 145.22,47.1058 146.5,45.5C 150.466,43.613 154.466,41.7796 158.5,40C 183.879,32.2614 209.879,28.9281 236.5,30C 243.921,30.17 250.921,31.67 257.5,34.5 Z"/></g>
<g><path style="opacity:1" fill="#b48264" d="M 423.5,68.5 C 411.141,68.2717 398.807,68.605 386.5,69.5C 398.738,65.9646 411.071,65.6313 423.5,68.5 Z"/></g>
<g><path style="opacity:1" fill="#df9d70" d="M 423.5,68.5 C 428.41,69.7396 433.41,70.573 438.5,71C 447.01,74.7258 455.677,78.0591 464.5,81C 468.264,85.2163 472.931,87.883 478.5,89C 486.833,94.6667 495.167,100.333 503.5,106C 506.206,108.371 508.539,111.037 510.5,114C 515.881,115.779 519.714,119.279 522,124.5C 527.459,128.12 531.626,132.786 534.5,138.5C 532.735,139.461 530.735,139.795 528.5,139.5C 527.167,137.833 525.833,136.167 524.5,134.5C 520.593,129.878 515.927,126.212 510.5,123.5C 509.772,121.807 508.772,120.307 507.5,119C 504.671,116.173 501.337,114.173 497.5,113C 489.952,105.058 480.952,99.3909 470.5,96C 467.772,93.6078 464.772,91.6078 461.5,90C 449.883,86.5123 438.216,83.1789 426.5,80C 414.831,78.0661 403.164,78.0661 391.5,80C 383.293,84.0925 374.626,87.0925 365.5,89C 358.154,95.6794 349.488,99.6794 339.5,101C 338.156,102.553 336.823,103.053 335.5,102.5C 345.015,92.1637 355.681,82.997 367.5,75C 373.611,72.3891 379.944,70.5557 386.5,69.5C 398.807,68.605 411.141,68.2717 423.5,68.5 Z"/></g>
<g><path style="opacity:1" fill="#975642" d="M 219.5,37.5 C 240.691,38.7203 261.691,41.887 282.5,47C 294.979,51.6337 307.646,55.6337 320.5,59C 330.527,64.8416 341.194,69.0083 352.5,71.5C 347.409,77.1677 342.575,83.1677 338,89.5C 336.196,93.3806 334.696,97.3806 333.5,101.5C 333.957,102.298 334.624,102.631 335.5,102.5C 336.823,103.053 338.156,102.553 339.5,101C 349.488,99.6794 358.154,95.6794 365.5,89C 374.626,87.0925 383.293,84.0925 391.5,80C 403.164,78.0661 414.831,78.0661 426.5,80C 438.216,83.1789 449.883,86.5123 461.5,90C 464.772,91.6078 467.772,93.6078 470.5,96C 480.952,99.3909 489.952,105.058 497.5,113C 501.337,114.173 504.671,116.173 507.5,119C 508.772,120.307 509.772,121.807 510.5,123.5C 515.927,126.212 520.593,129.878 524.5,134.5C 517.677,134.992 512.844,138.325 510,144.5C 505.753,158.603 509.587,169.769 521.5,178C 527.379,179.443 533.213,180.609 539,181.5C 541.5,181.333 544,181.167 546.5,181C 547.471,179.519 548.804,178.685 550.5,178.5C 549.859,179.482 549.193,180.482 548.5,181.5C 542.325,183.486 539.325,187.82 539.5,194.5C 540.5,194.5 541.5,194.5 542.5,194.5C 538.893,196.438 536.893,199.438 536.5,203.5C 537.108,207.373 538.274,211.039 540,214.5C 542.496,217.504 544.329,220.838 545.5,224.5C 540.476,222.321 535.81,219.488 531.5,216C 529.866,215.506 528.199,215.34 526.5,215.5C 526.744,218.263 528.077,220.429 530.5,222C 537.975,227.308 545.308,232.808 552.5,238.5C 553.386,239.325 553.719,240.325 553.5,241.5C 554.552,241.351 555.552,241.517 556.5,242C 558.127,244.779 560.46,246.613 563.5,247.5C 563.5,247.833 563.5,248.167 563.5,248.5C 563.334,256.174 563.5,263.841 564,271.5C 565.64,278.485 567.14,285.485 568.5,292.5C 566.097,292.552 563.764,292.219 561.5,291.5C 554.986,289.05 550.653,291.05 548.5,297.5C 547.023,301.233 546.189,305.233 546,309.5C 545.5,316.158 545.334,322.825 545.5,329.5C 542.475,329.877 539.475,330.044 536.5,330C 529.647,311.389 524.98,292.223 522.5,272.5C 521.685,264.088 520.351,255.755 518.5,247.5C 518.013,255.66 518.679,263.827 520.5,272C 520.167,272.833 519.833,273.667 519.5,274.5C 515.925,270.347 512.591,266.014 509.5,261.5C 502.72,258.642 498.22,253.642 496,246.5C 488.586,238.925 481.752,230.925 475.5,222.5C 471.957,220.78 469.29,218.114 467.5,214.5C 460.876,209.544 454.876,203.878 449.5,197.5C 442.338,193.084 435.005,188.918 427.5,185C 425.963,183.89 425.297,182.39 425.5,180.5C 421.642,179.161 417.642,178.327 413.5,178C 412.167,177 410.833,176 409.5,175C 388.097,172.913 366.763,170.746 345.5,168.5C 345.5,167.5 345.5,166.5 345.5,165.5C 344.127,165.657 342.793,165.49 341.5,165C 336.335,159.668 331.002,154.502 325.5,149.5C 323.466,146.294 321.633,142.96 320,139.5C 319.5,130.506 319.334,121.506 319.5,112.5C 321.429,109.051 322.096,105.384 321.5,101.5C 320.914,101.709 320.414,102.043 320,102.5C 315.609,110.054 311.442,117.721 307.5,125.5C 305.965,124.156 304.632,122.489 303.5,120.5C 296.909,116.038 289.909,112.371 282.5,109.5C 277.686,105.019 272.019,102.352 265.5,101.5C 243.459,91.7838 220.126,85.2838 195.5,82C 187.167,81.3333 178.833,81.3333 170.5,82C 166.059,83.1585 162.392,84.6585 159.5,86.5C 152.88,88.3784 146.213,90.0451 139.5,91.5C 138.5,91.5 137.5,91.5 136.5,91.5C 131.966,91.267 127.632,92.1003 123.5,94C 116.244,97.637 108.911,100.97 101.5,104C 99.2775,106.223 96.6108,107.556 93.5,108C 91.8446,109.444 91.178,111.278 91.5,113.5C 86.6518,115.509 82.4852,118.509 79,122.5C 78.8333,125.167 78.6667,127.833 78.5,130.5C 78.5217,133.59 79.1883,136.257 80.5,138.5C 68.4561,148.361 55.4561,156.861 41.5,164C 37.9031,165.277 34.2364,165.61 30.5,165C 29.7894,163.745 28.956,162.579 28,161.5C 26.5693,150.726 27.9026,140.392 32,130.5C 39.1547,117.857 47.988,106.523 58.5,96.5C 78.679,80.468 100.012,66.3014 122.5,54C 130.184,50.3268 138.184,47.4935 146.5,45.5C 145.22,47.1058 145.72,48.1058 148,48.5C 160.037,45.0508 172.204,41.8841 184.5,39C 196.134,37.768 207.8,37.268 219.5,37.5 Z"/></g>
<g><path style="opacity:1" fill="#6d453a" d="M 265.5,101.5 C 258.995,100.957 252.662,99.6237 246.5,97.5C 243.161,95.3574 239.495,93.5241 235.5,92C 226.903,90.0471 218.237,88.5471 209.5,87.5C 192.863,85.4611 176.196,85.1277 159.5,86.5C 162.392,84.6585 166.059,83.1585 170.5,82C 178.833,81.3333 187.167,81.3333 195.5,82C 220.126,85.2838 243.459,91.7838 265.5,101.5 Z"/></g>
<g><path style="opacity:1" fill="#e9ce9a" d="M 194.5,100.5 C 180.829,100.333 167.163,100.5 153.5,101C 150.176,101.614 147.176,102.78 144.5,104.5C 141.353,104.737 138.353,105.57 135.5,107C 131.112,109.861 126.446,112.194 121.5,114C 110.664,121.413 99.3304,127.747 87.5,133C 85.46,135.336 83.1267,137.169 80.5,138.5C 79.1883,136.257 78.5217,133.59 78.5,130.5C 78.6667,127.833 78.8333,125.167 79,122.5C 82.4852,118.509 86.6518,115.509 91.5,113.5C 99.9657,108.862 108.299,104.028 116.5,99C 123.133,96.1863 129.8,93.6863 136.5,91.5C 137.5,91.5 138.5,91.5 139.5,91.5C 149.584,90.4005 159.418,89.4005 169,88.5C 183.94,88.9544 198.44,90.2877 212.5,92.5C 213.167,96.5 211.5,98.1667 207.5,97.5C 207.5,98.5 207.5,99.5 207.5,100.5C 203.167,100.5 198.833,100.5 194.5,100.5 Z"/></g>
<g><path style="opacity:1" fill="#dfc397" d="M 209.5,87.5 C 218.77,90.8239 228.104,94.1572 237.5,97.5C 229.721,96.5699 222.054,95.5699 214.5,94.5C 214.539,96.3588 213.706,97.6921 212,98.5C 211.333,99.5 211.333,100.5 212,101.5C 213.388,100.446 214.888,100.28 216.5,101C 217.167,102.667 217.833,104.333 218.5,106C 225.302,106.824 231.635,108.824 237.5,112C 240.5,112.333 243.5,112.667 246.5,113C 248.886,113.284 249.552,114.284 248.5,116C 254.633,118.301 260.966,118.634 267.5,117C 266.167,115.667 264.833,114.333 263.5,113C 263.728,112.601 264.062,112.435 264.5,112.5C 271.155,115.644 276.822,120.144 281.5,126C 285.7,128.186 289.367,131.186 292.5,135C 288.891,134.762 285.225,134.595 281.5,134.5C 276.522,134.681 272.522,132.848 269.5,129C 255.068,121.807 240.401,115.307 225.5,109.5C 215.266,105.86 204.933,102.86 194.5,100.5C 198.833,100.5 203.167,100.5 207.5,100.5C 207.5,99.5 207.5,98.5 207.5,97.5C 211.5,98.1667 213.167,96.5 212.5,92.5C 198.44,90.2877 183.94,88.9544 169,88.5C 159.418,89.4005 149.584,90.4005 139.5,91.5C 146.213,90.0451 152.88,88.3784 159.5,86.5C 176.196,85.1277 192.863,85.4611 209.5,87.5 Z"/></g>
<g><path style="opacity:1" fill="#9d8976" d="M 209.5,87.5 C 218.237,88.5471 226.903,90.0471 235.5,92C 239.495,93.5241 243.161,95.3574 246.5,97.5C 249.333,100.25 252.666,101.916 256.5,102.5C 253.721,102.721 251.054,102.388 248.5,101.5C 244.974,100.026 241.307,98.6928 237.5,97.5C 228.104,94.1572 218.77,90.8239 209.5,87.5 Z"/></g>
<g><path style="opacity:1" fill="#e8ca95" d="M 237.5,97.5 C 241.307,98.6928 244.974,100.026 248.5,101.5C 248.369,102.376 248.702,103.043 249.5,103.5C 255.029,105.758 260.029,108.758 264.5,112.5C 264.062,112.435 263.728,112.601 263.5,113C 264.833,114.333 266.167,115.667 267.5,117C 260.966,118.634 254.633,118.301 248.5,116C 249.552,114.284 248.886,113.284 246.5,113C 243.5,112.667 240.5,112.333 237.5,112C 231.635,108.824 225.302,106.824 218.5,106C 217.833,104.333 217.167,102.667 216.5,101C 214.888,100.28 213.388,100.446 212,101.5C 211.333,100.5 211.333,99.5 212,98.5C 213.706,97.6921 214.539,96.3588 214.5,94.5C 222.054,95.5699 229.721,96.5699 237.5,97.5 Z"/></g>
<g><path style="opacity:0.995" fill="#3e2c2a" d="M 194.5,100.5 C 204.933,102.86 215.266,105.86 225.5,109.5C 225.369,110.376 225.702,111.043 226.5,111.5C 230.351,112.03 233.851,113.363 237,115.5C 236.405,117.35 235.905,119.35 235.5,121.5C 238.878,120.891 240.878,122.224 241.5,125.5C 228.817,120.439 215.817,116.273 202.5,113C 189.538,111.48 176.538,111.147 163.5,112C 154.34,115.745 145.673,120.245 137.5,125.5C 136.881,122.366 135.548,119.533 133.5,117C 133.424,114.244 134.757,113.077 137.5,113.5C 137.351,112.448 137.517,111.448 138,110.5C 140.492,108.754 142.659,106.754 144.5,104.5C 147.176,102.78 150.176,101.614 153.5,101C 167.163,100.5 180.829,100.333 194.5,100.5 Z"/></g>
<g><path style="opacity:1" fill="#975641" d="M 683.5,102.5 C 678.821,102.334 674.155,102.501 669.5,103C 672.565,105.389 675.899,107.389 679.5,109C 685.876,111.229 692.209,113.562 698.5,116C 704.83,116.819 711.164,117.152 717.5,117C 719.684,115.102 720.017,112.936 718.5,110.5C 721.533,113.206 724.866,115.706 728.5,118C 731.588,122.676 735.255,126.843 739.5,130.5C 742.784,131.657 746.118,131.824 749.5,131C 752.61,129.476 755.944,128.642 759.5,128.5C 759.5,130.167 759.5,131.833 759.5,133.5C 760.934,142.253 758.934,149.92 753.5,156.5C 749.298,151.82 744.298,147.986 738.5,145C 736.288,142.957 734.288,140.791 732.5,138.5C 728.545,140.15 725.212,142.483 722.5,145.5C 719.007,145.001 715.673,144.001 712.5,142.5C 702.146,141.141 691.813,141.308 681.5,143C 675.539,145.071 670.539,148.405 666.5,153C 663.582,154.709 660.748,156.542 658,158.5C 655.984,162.531 653.984,166.531 652,170.5C 651.501,175.823 651.334,181.156 651.5,186.5C 650.566,185.432 650.232,184.099 650.5,182.5C 646.4,182.237 642.4,182.57 638.5,183.5C 637.438,180.622 635.438,178.622 632.5,177.5C 631.226,173.273 629.226,169.606 626.5,166.5C 628.532,161.311 627.198,157.311 622.5,154.5C 621.713,152.896 620.38,152.229 618.5,152.5C 616.526,151.094 614.526,149.594 612.5,148C 609.518,147.502 606.518,147.335 603.5,147.5C 604.263,146.732 605.263,146.232 606.5,146C 601.303,145.133 596.303,145.8 591.5,148C 588.392,150.106 585.059,151.772 581.5,153C 578.617,154.74 576.284,156.907 574.5,159.5C 574.728,157.645 574.061,156.812 572.5,157C 570.999,158.252 569.332,159.252 567.5,160C 566.251,161.98 564.918,163.813 563.5,165.5C 563.366,163.708 563.699,162.042 564.5,160.5C 565.406,159.035 566.739,158.035 568.5,157.5C 569.386,156.675 569.719,155.675 569.5,154.5C 568.167,154.5 566.833,154.5 565.5,154.5C 565.039,151.697 563.705,149.363 561.5,147.5C 564.975,145.585 568.642,143.752 572.5,142C 573.337,140.989 573.67,139.822 573.5,138.5C 566.442,137.143 559.442,136.143 552.5,135.5C 560.203,135.522 567.87,135.688 575.5,136C 583.767,128.86 592.434,122.194 601.5,116C 610.824,111.579 620.491,107.913 630.5,105C 648.17,101.432 665.837,100.599 683.5,102.5 Z"/></g>
<g><path style="opacity:1" fill="#8c6559" d="M 136.5,91.5 C 129.8,93.6863 123.133,96.1863 116.5,99C 108.299,104.028 99.9657,108.862 91.5,113.5C 91.178,111.278 91.8446,109.444 93.5,108C 96.6108,107.556 99.2775,106.223 101.5,104C 108.911,100.97 116.244,97.637 123.5,94C 127.632,92.1003 131.966,91.267 136.5,91.5 Z"/></g>
<g><path style="opacity:1" fill="#d0906b" d="M 683.5,102.5 C 695.72,103.14 707.386,105.807 718.5,110.5C 720.017,112.936 719.684,115.102 717.5,117C 711.164,117.152 704.83,116.819 698.5,116C 692.209,113.562 685.876,111.229 679.5,109C 675.899,107.389 672.565,105.389 669.5,103C 674.155,102.501 678.821,102.334 683.5,102.5 Z"/></g>
<g><path style="opacity:1" fill="#876956" d="M 246.5,97.5 C 252.662,99.6237 258.995,100.957 265.5,101.5C 265.369,102.376 265.702,103.043 266.5,103.5C 275.481,106.973 284.148,111.14 292.5,116C 290.381,116.342 290.047,117.175 291.5,118.5C 280.139,112.316 268.472,106.983 256.5,102.5C 252.666,101.916 249.333,100.25 246.5,97.5 Z"/></g>
<g><path style="opacity:1" fill="#664639" d="M 265.5,101.5 C 272.019,102.352 277.686,105.019 282.5,109.5C 289.909,112.371 296.909,116.038 303.5,120.5C 304.632,122.489 305.965,124.156 307.5,125.5C 307.768,127.099 307.434,128.432 306.5,129.5C 306.063,127.926 305.063,126.759 303.5,126C 299.304,123.739 295.304,121.239 291.5,118.5C 290.047,117.175 290.381,116.342 292.5,116C 284.148,111.14 275.481,106.973 266.5,103.5C 265.702,103.043 265.369,102.376 265.5,101.5 Z"/></g>
<g><path style="opacity:1" fill="#ccae85" d="M 248.5,101.5 C 251.054,102.388 253.721,102.721 256.5,102.5C 268.472,106.983 280.139,112.316 291.5,118.5C 295.304,121.239 299.304,123.739 303.5,126C 305.063,126.759 306.063,127.926 306.5,129.5C 304.879,132.273 303.212,135.106 301.5,138C 299.167,138.667 296.833,138.667 294.5,138C 290.14,136.417 285.806,135.25 281.5,134.5C 285.225,134.595 288.891,134.762 292.5,135C 289.367,131.186 285.7,128.186 281.5,126C 276.822,120.144 271.155,115.644 264.5,112.5C 260.029,108.758 255.029,105.758 249.5,103.5C 248.702,103.043 248.369,102.376 248.5,101.5 Z"/></g>
<g><path style="opacity:1" fill="#80493f" d="M 319.5,112.5 C 319.334,121.506 319.5,130.506 320,139.5C 321.633,142.96 323.466,146.294 325.5,149.5C 331.002,154.502 336.335,159.668 341.5,165C 342.793,165.49 344.127,165.657 345.5,165.5C 345.5,166.5 345.5,167.5 345.5,168.5C 366.763,170.746 388.097,172.913 409.5,175C 410.833,176 412.167,177 413.5,178C 417.642,178.327 421.642,179.161 425.5,180.5C 425.297,182.39 425.963,183.89 427.5,185C 435.005,188.918 442.338,193.084 449.5,197.5C 454.876,203.878 460.876,209.544 467.5,214.5C 469.29,218.114 471.957,220.78 475.5,222.5C 481.752,230.925 488.586,238.925 496,246.5C 498.22,253.642 502.72,258.642 509.5,261.5C 512.591,266.014 515.925,270.347 519.5,274.5C 519.833,273.667 520.167,272.833 520.5,272C 518.679,263.827 518.013,255.66 518.5,247.5C 520.351,255.755 521.685,264.088 522.5,272.5C 521.698,273.952 521.198,275.618 521,277.5C 520.5,288.495 520.333,299.495 520.5,310.5C 516.552,303.302 512.052,296.302 507,289.5C 502.167,286 498,281.833 494.5,277C 487.614,272.79 481.281,267.79 475.5,262C 470.526,260.787 466.526,258.121 463.5,254C 453.996,248.718 444.829,242.885 436,236.5C 422.53,229.718 409.03,222.885 395.5,216C 387.514,213.343 379.514,210.676 371.5,208C 362.545,206.375 353.545,205.208 344.5,204.5C 333.964,198.384 322.964,193.218 311.5,189C 306.82,183.655 302.153,178.322 297.5,173C 298.984,170.51 300.484,168.01 302,165.5C 303.526,152.143 306.526,139.143 311,126.5C 313.595,121.636 316.428,116.969 319.5,112.5 Z"/></g>
<g><path style="opacity:0.999" fill="#3d2924" d="M 319.5,112.5 C 316.428,116.969 313.595,121.636 311,126.5C 306.526,139.143 303.526,152.143 302,165.5C 300.484,168.01 298.984,170.51 297.5,173C 302.153,178.322 306.82,183.655 311.5,189C 322.964,193.218 333.964,198.384 344.5,204.5C 344.082,205.222 343.416,205.722 342.5,206C 347.801,210.3 352.801,214.966 357.5,220C 395.701,244.597 434.034,268.93 472.5,293C 479.317,296.574 486.317,299.907 493.5,303C 494.833,304.333 496.167,305.667 497.5,307C 505.133,308.9 512.466,311.4 519.5,314.5C 519.722,318.326 521.555,320.993 525,322.5C 527.099,326.017 528.599,329.684 529.5,333.5C 535.588,333.656 541.421,332.656 547,330.5C 547.794,319.511 548.294,308.511 548.5,297.5C 550.653,291.05 554.986,289.05 561.5,291.5C 566.763,294.362 572.096,297.029 577.5,299.5C 584.978,304.456 593.311,306.79 602.5,306.5C 612.215,305.744 621.882,304.577 631.5,303C 636.476,302.097 641.142,300.597 645.5,298.5C 652.031,298.026 658.364,296.86 664.5,295C 665.167,294.333 665.833,293.667 666.5,293C 671.476,292.673 676.143,291.34 680.5,289C 686.484,288.302 692.484,287.802 698.5,287.5C 711.315,290.953 724.315,293.619 737.5,295.5C 739.463,296.82 741.463,298.154 743.5,299.5C 745.229,300.236 746.229,301.57 746.5,303.5C 746.5,305.833 746.5,308.167 746.5,310.5C 742.666,320.519 738.499,330.519 734,340.5C 731.872,343.63 729.372,346.463 726.5,349C 727.5,349.667 728.5,349.667 729.5,349C 731.514,346.655 733.847,344.655 736.5,343C 743.172,335.5 746.839,326.667 747.5,316.5C 748.954,313.282 749.621,309.782 749.5,306C 749.156,299.316 748.49,292.816 747.5,286.5C 746.864,279.088 745.697,271.755 744,264.5C 743.252,262.249 741.752,260.916 739.5,260.5C 739.281,257.326 737.615,255.493 734.5,255C 732.959,253.629 731.625,252.129 730.5,250.5C 734.575,249.172 738.575,247.339 742.5,245C 751.579,238.631 759.579,231.131 766.5,222.5C 767.429,219.588 768.762,216.921 770.5,214.5C 770.182,213.353 769.516,212.519 768.5,212C 757.16,211.555 745.827,211.055 734.5,210.5C 733.167,209.833 731.833,209.167 730.5,208.5C 744.265,208.024 757.932,208.691 771.5,210.5C 771.5,209.5 771.5,208.5 771.5,207.5C 771.833,207.5 772.167,207.5 772.5,207.5C 773.833,203.5 773.833,199.5 772.5,195.5C 771.566,194.432 771.232,193.099 771.5,191.5C 769.131,191.851 766.797,192.018 764.5,192C 765.672,191.581 766.672,190.915 767.5,190C 765.536,189.376 763.869,189.876 762.5,191.5C 762.709,192.086 763.043,192.586 763.5,193C 761.471,193.681 759.471,194.014 757.5,194C 760.58,189.737 764.58,186.903 769.5,185.5C 767.521,180.522 763.855,177.856 758.5,177.5C 755.618,176.087 752.451,175.421 749,175.5C 746.967,175.506 745.134,175.839 743.5,176.5C 738.655,181.183 734.322,186.35 730.5,192C 725.52,194.968 720.52,197.968 715.5,201C 709.078,203.021 702.578,204.521 696,205.5C 689.077,205.364 682.243,204.53 675.5,203C 669.288,199.727 662.954,196.727 656.5,194C 654.93,192.603 653.596,191.103 652.5,189.5C 652.443,188.391 652.11,187.391 651.5,186.5C 651.334,181.156 651.501,175.823 652,170.5C 653.984,166.531 655.984,162.531 658,158.5C 660.748,156.542 663.582,154.709 666.5,153C 670.539,148.405 675.539,145.071 681.5,143C 691.813,141.308 702.146,141.141 712.5,142.5C 715.673,144.001 719.007,145.001 722.5,145.5C 726.361,146.547 730.027,148.047 733.5,150C 736.333,152.833 739.167,155.667 742,158.5C 743.697,163.128 743.864,167.795 742.5,172.5C 749.472,172.821 756.472,173.821 763.5,175.5C 763.5,174.5 763.5,173.5 763.5,172.5C 764.53,171.448 765.197,170.114 765.5,168.5C 761.079,157.32 759.412,145.653 760.5,133.5C 761.127,139.731 761.961,146.065 763,152.5C 764.57,152.67 766.403,153.003 768.5,153.5C 768.76,147.828 769.093,142.161 769.5,136.5C 770.873,136.343 772.207,136.51 773.5,137C 777.526,141.479 782.026,143.312 787,142.5C 786.087,146.877 785.253,151.377 784.5,156C 784.99,158.346 785.657,160.513 786.5,162.5C 784.516,165.489 782.516,168.489 780.5,171.5C 783.186,178.046 786.352,184.38 790,190.5C 790.671,199.138 789.838,207.638 787.5,216C 788.961,218.298 790.628,220.465 792.5,222.5C 788.872,222.568 785.205,222.901 781.5,223.5C 773.845,234.154 764.845,243.488 754.5,251.5C 757.003,253.803 757.67,256.469 756.5,259.5C 758.445,263.61 759.611,267.944 760,272.5C 761.962,289.506 761.962,306.506 760,323.5C 754.23,352.954 736.73,364.787 707.5,359C 695.478,354.8 689.478,346.3 689.5,333.5C 690.985,324.882 693.319,316.549 696.5,308.5C 682.685,311.494 669.351,315.994 656.5,322C 645.536,325.657 634.536,329.157 623.5,332.5C 623.291,333.086 622.957,333.586 622.5,334C 631.915,346.997 637.248,361.497 638.5,377.5C 637.091,395.783 627.757,408.283 610.5,415C 571.356,423.549 545.523,408.715 533,370.5C 531.021,361.434 528.854,352.434 526.5,343.5C 480.739,322.467 438.072,296.634 398.5,266C 372.794,251.287 348.461,234.62 325.5,216C 323.167,213 320.833,210 318.5,207C 295.482,206.83 272.482,206.163 249.5,205C 228.112,200.298 218.279,187.132 220,165.5C 225.949,150.218 236.615,139.551 252,133.5C 252.507,132.004 252.007,130.837 250.5,130C 247.352,128.576 244.352,127.076 241.5,125.5C 240.878,122.224 238.878,120.891 235.5,121.5C 235.905,119.35 236.405,117.35 237,115.5C 233.851,113.363 230.351,112.03 226.5,111.5C 225.702,111.043 225.369,110.376 225.5,109.5C 240.401,115.307 255.068,121.807 269.5,129C 272.522,132.848 276.522,134.681 281.5,134.5C 285.806,135.25 290.14,136.417 294.5,138C 296.833,138.667 299.167,138.667 301.5,138C 303.212,135.106 304.879,132.273 306.5,129.5C 307.434,128.432 307.768,127.099 307.5,125.5C 311.442,117.721 315.609,110.054 320,102.5C 320.414,102.043 320.914,101.709 321.5,101.5C 322.096,105.384 321.429,109.051 319.5,112.5 Z"/></g>
<g><path style="opacity:1" fill="#402f2d" d="M 559.5,235.5 C 567.377,241.941 576.044,247.107 585.5,251C 588.384,253.937 591.717,256.103 595.5,257.5C 603.615,261.707 612.282,264.707 621.5,266.5C 643.996,267.663 666.663,267.83 689.5,267C 696.188,265.755 702.855,264.422 709.5,263C 715.784,260.194 722.117,257.361 728.5,254.5C 729.527,256.194 730.861,257.527 732.5,258.5C 731.7,260.573 730.367,262.24 728.5,263.5C 723.052,264.556 718.052,266.722 713.5,270C 706.731,271.66 700.064,273.16 693.5,274.5C 668.873,278.319 644.207,278.485 619.5,275C 610.225,272.285 601.225,268.952 592.5,265C 588.12,262.095 583.453,259.762 578.5,258C 575.335,255.665 572.335,253.165 569.5,250.5C 567.626,249.715 565.626,249.048 563.5,248.5C 563.5,248.167 563.5,247.833 563.5,247.5C 562.587,245.914 562.587,244.414 563.5,243C 562.286,240.326 560.953,237.826 559.5,235.5 Z"/></g>
<g><path style="opacity:1" fill="#dec8a5" d="M 728.5,263.5 C 728.719,264.675 728.386,265.675 727.5,266.5C 724.875,267.764 722.208,268.931 719.5,270C 714.591,270.7 709.925,272.034 705.5,274C 701.514,274.499 697.514,274.666 693.5,274.5C 700.064,273.16 706.731,271.66 713.5,270C 718.052,266.722 723.052,264.556 728.5,263.5 Z"/></g>
<g><path style="opacity:1" fill="#f9dca4" d="M 732.5,258.5 C 735.681,260.592 738.681,262.925 741.5,265.5C 742.117,265.611 742.617,265.944 743,266.5C 744.159,273.793 744.992,281.126 745.5,288.5C 745.489,292.565 744.822,296.232 743.5,299.5C 741.463,298.154 739.463,296.82 737.5,295.5C 737.389,294.883 737.056,294.383 736.5,294C 732.427,293.212 728.427,292.212 724.5,291C 724.833,290.667 725.167,290.333 725.5,290C 720.455,289.411 715.455,288.578 710.5,287.5C 711.894,286.313 711.727,285.646 710,285.5C 699.863,285.358 689.696,285.525 679.5,286C 677.709,283.894 677.042,281.394 677.5,278.5C 679.331,277.948 680.997,277.948 682.5,278.5C 686.478,277.424 690.145,276.09 693.5,274.5C 697.514,274.666 701.514,274.499 705.5,274C 709.925,272.034 714.591,270.7 719.5,270C 722.208,268.931 724.875,267.764 727.5,266.5C 728.386,265.675 728.719,264.675 728.5,263.5C 730.367,262.24 731.7,260.573 732.5,258.5 Z"/></g>
<g><path style="opacity:1" fill="#f2f0ea" d="M 730.5,250.5 C 731.625,252.129 732.959,253.629 734.5,255C 737.615,255.493 739.281,257.326 739.5,260.5C 740.167,262.167 740.833,263.833 741.5,265.5C 738.681,262.925 735.681,260.592 732.5,258.5C 730.861,257.527 729.527,256.194 728.5,254.5C 727.91,252.903 726.91,251.569 725.5,250.5C 727.095,249.566 728.761,249.566 730.5,250.5 Z"/></g>
<g><path style="opacity:1" fill="#eacc9b" d="M 569.5,250.5 C 572.335,253.165 575.335,255.665 578.5,258C 583.453,259.762 588.12,262.095 592.5,265C 601.225,268.952 610.225,272.285 619.5,275C 644.207,278.485 668.873,278.319 693.5,274.5C 690.145,276.09 686.478,277.424 682.5,278.5C 680.997,277.948 679.331,277.948 677.5,278.5C 677.042,281.394 677.709,283.894 679.5,286C 689.696,285.525 699.863,285.358 710,285.5C 711.727,285.646 711.894,286.313 710.5,287.5C 715.455,288.578 720.455,289.411 725.5,290C 725.167,290.333 724.833,290.667 724.5,291C 728.427,292.212 732.427,293.212 736.5,294C 737.056,294.383 737.389,294.883 737.5,295.5C 724.315,293.619 711.315,290.953 698.5,287.5C 692.484,287.802 686.484,288.302 680.5,289C 676.143,291.34 671.476,292.673 666.5,293C 665.833,293.667 665.167,294.333 664.5,295C 658.364,296.86 652.031,298.026 645.5,298.5C 638.013,299.013 630.68,300.346 623.5,302.5C 612.263,300.835 600.929,299.668 589.5,299C 584.7,298.011 580.033,296.844 575.5,295.5C 572.915,290.161 571.415,284.495 571,278.5C 570.333,277.167 569.333,276.167 568,275.5C 566.47,267.564 566.137,259.564 567,251.5C 567.671,250.748 568.504,250.414 569.5,250.5 Z"/></g>
<g><path style="opacity:1" fill="#f4ede4" d="M 607.5,237.5 C 602.293,243.032 602.293,248.866 607.5,255C 608.833,255.333 610.167,255.667 611.5,256C 612.276,258.987 613.943,259.82 616.5,258.5C 617.298,260.078 617.798,261.744 618,263.5C 619.947,264.11 621.781,264.943 623.5,266C 622.906,266.464 622.239,266.631 621.5,266.5C 612.282,264.707 603.615,261.707 595.5,257.5C 597.541,257.854 599.374,257.854 601,257.5C 600.923,253.195 600.756,248.862 600.5,244.5C 599.178,244.67 598.011,244.337 597,243.5C 595.73,245.836 594.23,245.836 592.5,243.5C 592.624,242.893 592.957,242.56 593.5,242.5C 593.56,243.043 593.893,243.376 594.5,243.5C 598.465,240.684 602.798,238.684 607.5,237.5 Z"/></g>
<g><path style="opacity:1" fill="#452921" d="M 545.5,224.5 C 549.843,228.66 554.509,232.327 559.5,235.5C 560.953,237.826 562.286,240.326 563.5,243C 562.587,244.414 562.587,245.914 563.5,247.5C 560.46,246.613 558.127,244.779 556.5,242C 555.552,241.517 554.552,241.351 553.5,241.5C 553.719,240.325 553.386,239.325 552.5,238.5C 545.308,232.808 537.975,227.308 530.5,222C 528.077,220.429 526.744,218.263 526.5,215.5C 528.199,215.34 529.866,215.506 531.5,216C 535.81,219.488 540.476,222.321 545.5,224.5 Z"/></g>
<g><path style="opacity:1" fill="#5d4941" d="M 623.5,223.5 C 624.833,223.5 625.5,224.167 625.5,225.5C 620.321,230.669 614.321,234.669 607.5,237.5C 602.798,238.684 598.465,240.684 594.5,243.5C 593.893,243.376 593.56,243.043 593.5,242.5C 596.545,239.453 599.878,236.787 603.5,234.5C 610.645,231.685 617.312,228.018 623.5,223.5 Z"/></g>
<g><path style="opacity:1" fill="#f5d7a6" d="M 623.5,223.5 C 617.312,228.018 610.645,231.685 603.5,234.5C 602.578,230.888 601.911,227.221 601.5,223.5C 609.266,223.113 616.932,222.113 624.5,220.5C 624.833,220.833 625.167,221.167 625.5,221.5C 624.757,222.182 624.091,222.849 623.5,223.5 Z"/></g>
<g><path style="opacity:1" fill="#74604d" d="M 631.5,221.5 C 629.246,222.415 627.246,223.748 625.5,225.5C 625.5,224.167 624.833,223.5 623.5,223.5C 624.091,222.849 624.757,222.182 625.5,221.5C 625.167,221.167 624.833,220.833 624.5,220.5C 616.932,222.113 609.266,223.113 601.5,223.5C 600.167,223.5 599.5,222.833 599.5,221.5C 611.862,219.876 624.195,217.876 636.5,215.5C 638.5,215.667 640.5,215.833 642.5,216C 638.224,216.805 634.557,218.638 631.5,221.5 Z"/></g>
<g><path style="opacity:1" fill="#594943" d="M 601.5,215.5 C 593.569,216.31 586.069,218.643 579,222.5C 577.065,223.343 575.231,223.343 573.5,222.5C 581.327,217.92 589.327,213.92 597.5,210.5C 610.578,206.73 623.912,204.563 637.5,204C 625.296,207.792 613.296,211.626 601.5,215.5 Z"/></g>
<g><path style="opacity:1" fill="#fce0a9" d="M 734.5,210.5 C 745.827,211.055 757.16,211.555 768.5,212C 769.516,212.519 770.182,213.353 770.5,214.5C 768.762,216.921 767.429,219.588 766.5,222.5C 759.579,231.131 751.579,238.631 742.5,245C 738.575,247.339 734.575,249.172 730.5,250.5C 728.761,249.566 727.095,249.566 725.5,250.5C 726.91,251.569 727.91,252.903 728.5,254.5C 722.117,257.361 715.784,260.194 709.5,263C 702.855,264.422 696.188,265.755 689.5,267C 666.663,267.83 643.996,267.663 621.5,266.5C 622.239,266.631 622.906,266.464 623.5,266C 621.781,264.943 619.947,264.11 618,263.5C 617.798,261.744 617.298,260.078 616.5,258.5C 613.943,259.82 612.276,258.987 611.5,256C 610.167,255.667 608.833,255.333 607.5,255C 602.293,248.866 602.293,243.032 607.5,237.5C 614.321,234.669 620.321,230.669 625.5,225.5C 627.246,223.748 629.246,222.415 631.5,221.5C 633.262,221.643 634.929,221.309 636.5,220.5C 637.167,222.167 637.833,223.833 638.5,225.5C 639.354,224.478 640.354,223.645 641.5,223C 641.167,222.667 640.833,222.333 640.5,222C 644.5,221 644.5,220 640.5,219C 642.329,218.727 643.829,217.893 645,216.5C 646.204,217.471 646.704,218.471 646.5,219.5C 647.192,218.975 647.692,218.308 648,217.5C 648.256,221.74 650.422,223.74 654.5,223.5C 663.529,227.348 672.862,228.348 682.5,226.5C 682.5,225.5 682.5,224.5 682.5,223.5C 678.298,223.817 674.298,223.483 670.5,222.5C 676.922,221.732 683.256,221.399 689.5,221.5C 689.312,217.909 690.145,214.576 692,211.5C 693.011,212.337 694.178,212.67 695.5,212.5C 702.87,215.509 710.536,217.509 718.5,218.5C 722.019,219.808 725.685,219.808 729.5,218.5C 728.5,217.667 727.5,216.833 726.5,216C 729.36,214.407 732.026,212.574 734.5,210.5 Z"/></g>
<g><path style="opacity:1" fill="#665643" d="M 670.5,222.5 C 674.298,223.483 678.298,223.817 682.5,223.5C 682.5,224.5 682.5,225.5 682.5,226.5C 672.862,228.348 663.529,227.348 654.5,223.5C 653.942,222.21 652.942,221.377 651.5,221C 657.743,221.89 664.076,222.39 670.5,222.5 Z"/></g>
<g><path style="opacity:1" fill="#cbad87" d="M 344.5,204.5 C 353.545,205.208 362.545,206.375 371.5,208C 379.514,210.676 387.514,213.343 395.5,216C 409.03,222.885 422.53,229.718 436,236.5C 444.829,242.885 453.996,248.718 463.5,254C 466.526,258.121 470.526,260.787 475.5,262C 481.281,267.79 487.614,272.79 494.5,277C 498,281.833 502.167,286 507,289.5C 512.052,296.302 516.552,303.302 520.5,310.5C 520.768,312.099 520.434,313.432 519.5,314.5C 512.466,311.4 505.133,308.9 497.5,307C 496.167,305.667 494.833,304.333 493.5,303C 486.317,299.907 479.317,296.574 472.5,293C 434.034,268.93 395.701,244.597 357.5,220C 352.801,214.966 347.801,210.3 342.5,206C 343.416,205.722 344.082,205.222 344.5,204.5 Z"/></g>
<g><path style="opacity:1" fill="#96826c" d="M 730.5,208.5 C 743.99,207.504 757.656,207.171 771.5,207.5C 771.5,208.5 771.5,209.5 771.5,210.5C 757.932,208.691 744.265,208.024 730.5,208.5 Z"/></g>
<g><path style="opacity:1" fill="#918c83" d="M 608.5,197.5 C 608.5,197.833 608.5,198.167 608.5,198.5C 604.896,199.806 601.563,201.472 598.5,203.5C 594.824,203.587 591.658,204.92 589,207.5C 588.5,207.167 588,206.833 587.5,206.5C 593.666,201.584 600.666,198.584 608.5,197.5 Z"/></g>
<g><path style="opacity:1" fill="#b1966d" d="M 772.5,195.5 C 773.833,199.5 773.833,203.5 772.5,207.5C 772.5,204.833 772.5,202.167 772.5,199.5C 762.835,200.125 753.169,200.292 743.5,200C 744.253,198.513 745.086,198.346 746,199.5C 755.113,198.438 763.947,197.105 772.5,195.5 Z"/></g>
<g><path style="opacity:1" fill="#a8a6a4" d="M 616.5,190.5 C 614.5,192.167 612.5,193.833 610.5,195.5C 602.62,196.012 595.12,198.012 588,201.5C 586.278,201.389 586.112,200.889 587.5,200C 596.603,195.14 606.27,191.974 616.5,190.5 Z"/></g>
<g><path style="opacity:1" fill="#e5c796" d="M 651.5,186.5 C 652.11,187.391 652.443,188.391 652.5,189.5C 648.066,187.763 643.399,187.096 638.5,187.5C 638.435,189.696 637.768,191.696 636.5,193.5C 636.002,192.397 635.669,191.397 635.5,190.5C 626.916,194.563 617.916,197.23 608.5,198.5C 608.5,198.167 608.5,197.833 608.5,197.5C 609.5,197.167 610.167,196.5 610.5,195.5C 612.5,193.833 614.5,192.167 616.5,190.5C 617.919,189.549 619.585,189.216 621.5,189.5C 626.061,188.093 630.728,187.093 635.5,186.5C 635.987,187.473 636.487,188.473 637,189.5C 637.651,187.765 637.485,186.098 636.5,184.5C 636.957,183.702 637.624,183.369 638.5,183.5C 642.4,182.57 646.4,182.237 650.5,182.5C 650.232,184.099 650.566,185.432 651.5,186.5 Z"/></g>
<g><path style="opacity:1" fill="#b3a696" d="M 627.5,185.5 C 630.385,185.194 633.052,185.527 635.5,186.5C 630.728,187.093 626.061,188.093 621.5,189.5C 622.6,188.442 623.934,187.608 625.5,187C 617.164,186.69 608.83,186.857 600.5,187.5C 609.283,185.903 618.283,185.236 627.5,185.5 Z"/></g>
<g><path style="opacity:1" fill="#f8dba4" d="M 743.5,176.5 C 748.527,176.503 753.527,176.836 758.5,177.5C 763.855,177.856 767.521,180.522 769.5,185.5C 764.58,186.903 760.58,189.737 757.5,194C 759.471,194.014 761.471,193.681 763.5,193C 763.043,192.586 762.709,192.086 762.5,191.5C 763.869,189.876 765.536,189.376 767.5,190C 766.672,190.915 765.672,191.581 764.5,192C 766.797,192.018 769.131,191.851 771.5,191.5C 771.232,193.099 771.566,194.432 772.5,195.5C 763.947,197.105 755.113,198.438 746,199.5C 745.086,198.346 744.253,198.513 743.5,200C 753.169,200.292 762.835,200.125 772.5,199.5C 772.5,202.167 772.5,204.833 772.5,207.5C 772.167,207.5 771.833,207.5 771.5,207.5C 757.656,207.171 743.99,207.504 730.5,208.5C 731.833,209.167 733.167,209.833 734.5,210.5C 732.026,212.574 729.36,214.407 726.5,216C 727.5,216.833 728.5,217.667 729.5,218.5C 725.685,219.808 722.019,219.808 718.5,218.5C 719.873,218.657 721.207,218.49 722.5,218C 722.167,217.667 721.833,217.333 721.5,217C 712.242,214.853 703.242,212.019 694.5,208.5C 694.167,209 693.833,209.5 693.5,210C 694.056,211.011 694.722,211.844 695.5,212.5C 694.178,212.67 693.011,212.337 692,211.5C 690.145,214.576 689.312,217.909 689.5,221.5C 683.256,221.399 676.922,221.732 670.5,222.5C 664.076,222.39 657.743,221.89 651.5,221C 652.942,221.377 653.942,222.21 654.5,223.5C 650.422,223.74 648.256,221.74 648,217.5C 647.692,218.308 647.192,218.975 646.5,219.5C 646.704,218.471 646.204,217.471 645,216.5C 643.829,217.893 642.329,218.727 640.5,219C 644.5,220 644.5,221 640.5,222C 640.833,222.333 641.167,222.667 641.5,223C 640.354,223.645 639.354,224.478 638.5,225.5C 637.833,223.833 637.167,222.167 636.5,220.5C 634.929,221.309 633.262,221.643 631.5,221.5C 634.557,218.638 638.224,216.805 642.5,216C 640.5,215.833 638.5,215.667 636.5,215.5C 624.195,217.876 611.862,219.876 599.5,221.5C 599.259,219.114 599.925,217.114 601.5,215.5C 613.296,211.626 625.296,207.792 637.5,204C 623.912,204.563 610.578,206.73 597.5,210.5C 597.298,208.05 597.631,205.717 598.5,203.5C 601.563,201.472 604.896,199.806 608.5,198.5C 617.916,197.23 626.916,194.563 635.5,190.5C 635.669,191.397 636.002,192.397 636.5,193.5C 637.768,191.696 638.435,189.696 638.5,187.5C 643.399,187.096 648.066,187.763 652.5,189.5C 653.596,191.103 654.93,192.603 656.5,194C 662.954,196.727 669.288,199.727 675.5,203C 682.243,204.53 689.077,205.364 696,205.5C 702.578,204.521 709.078,203.021 715.5,201C 720.52,197.968 725.52,194.968 730.5,192C 734.322,186.35 738.655,181.183 743.5,176.5 Z"/></g>
<g><path style="opacity:1" fill="#71624f" d="M 718.5,218.5 C 710.536,217.509 702.87,215.509 695.5,212.5C 694.722,211.844 694.056,211.011 693.5,210C 693.833,209.5 694.167,209 694.5,208.5C 703.242,212.019 712.242,214.853 721.5,217C 721.833,217.333 722.167,217.667 722.5,218C 721.207,218.49 719.873,218.657 718.5,218.5 Z"/></g>
<g><path style="opacity:1" fill="#f8f7f6" d="M 603.5,147.5 C 599.933,149.557 596.766,152.223 594,155.5C 593.038,159.977 592.205,164.477 591.5,169C 593.622,179.097 599.622,182.43 609.5,179C 611.953,177.12 613.953,174.787 615.5,172C 620.042,171.729 623.709,169.896 626.5,166.5C 629.226,169.606 631.226,173.273 632.5,177.5C 628.094,178.651 623.761,179.984 619.5,181.5C 608.569,182.157 597.902,183.824 587.5,186.5C 583.837,186.952 580.17,187.452 576.5,188C 574.382,188.26 572.716,189.26 571.5,191C 577.607,190.137 583.607,188.971 589.5,187.5C 593.167,187.5 596.833,187.5 600.5,187.5C 608.83,186.857 617.164,186.69 625.5,187C 623.934,187.608 622.6,188.442 621.5,189.5C 619.585,189.216 617.919,189.549 616.5,190.5C 606.27,191.974 596.603,195.14 587.5,200C 586.112,200.889 586.278,201.389 588,201.5C 595.12,198.012 602.62,196.012 610.5,195.5C 610.167,196.5 609.5,197.167 608.5,197.5C 600.666,198.584 593.666,201.584 587.5,206.5C 588,206.833 588.5,207.167 589,207.5C 591.658,204.92 594.824,203.587 598.5,203.5C 597.631,205.717 597.298,208.05 597.5,210.5C 589.327,213.92 581.327,217.92 573.5,222.5C 575.231,223.343 577.065,223.343 579,222.5C 586.069,218.643 593.569,216.31 601.5,215.5C 599.925,217.114 599.259,219.114 599.5,221.5C 599.5,222.833 600.167,223.5 601.5,223.5C 601.911,227.221 602.578,230.888 603.5,234.5C 599.878,236.787 596.545,239.453 593.5,242.5C 592.957,242.56 592.624,242.893 592.5,243.5C 594.23,245.836 595.73,245.836 597,243.5C 598.011,244.337 599.178,244.67 600.5,244.5C 600.756,248.862 600.923,253.195 601,257.5C 599.374,257.854 597.541,257.854 595.5,257.5C 591.717,256.103 588.384,253.937 585.5,251C 576.044,247.107 567.377,241.941 559.5,235.5C 554.509,232.327 549.843,228.66 545.5,224.5C 544.329,220.838 542.496,217.504 540,214.5C 538.274,211.039 537.108,207.373 536.5,203.5C 536.893,199.438 538.893,196.438 542.5,194.5C 550.283,187.89 557.116,180.556 563,172.5C 567.413,168.592 571.247,164.259 574.5,159.5C 576.284,156.907 578.617,154.74 581.5,153C 585.059,151.772 588.392,150.106 591.5,148C 596.303,145.8 601.303,145.133 606.5,146C 605.263,146.232 604.263,146.732 603.5,147.5 Z"/></g>
<g><path style="opacity:1" fill="#8a8685" d="M 587.5,186.5 C 587.842,187.338 588.508,187.672 589.5,187.5C 583.607,188.971 577.607,190.137 571.5,191C 572.716,189.26 574.382,188.26 576.5,188C 580.17,187.452 583.837,186.952 587.5,186.5 Z"/></g>
<g><path style="opacity:1" fill="#b75c40" d="M 574.5,159.5 C 571.247,164.259 567.413,168.592 563,172.5C 557.116,180.556 550.283,187.89 542.5,194.5C 541.5,194.5 540.5,194.5 539.5,194.5C 539.325,187.82 542.325,183.486 548.5,181.5C 549.193,180.482 549.859,179.482 550.5,178.5C 554.544,175.457 557.877,171.791 560.5,167.5C 561.5,166.833 562.5,166.167 563.5,165.5C 564.918,163.813 566.251,161.98 567.5,160C 569.332,159.252 570.999,158.252 572.5,157C 574.061,156.812 574.728,157.645 574.5,159.5 Z"/></g>
<g><path style="opacity:1" fill="#574542" d="M 627.5,185.5 C 618.283,185.236 609.283,185.903 600.5,187.5C 596.833,187.5 593.167,187.5 589.5,187.5C 588.508,187.672 587.842,187.338 587.5,186.5C 597.902,183.824 608.569,182.157 619.5,181.5C 623.547,181.695 627.547,181.362 631.5,180.5C 632.966,181.135 634.3,181.969 635.5,183C 632.749,183.943 630.083,184.776 627.5,185.5 Z"/></g>
<g><path style="opacity:1" fill="#75625a" d="M 632.5,177.5 C 635.438,178.622 637.438,180.622 638.5,183.5C 637.624,183.369 636.957,183.702 636.5,184.5C 637.485,186.098 637.651,187.765 637,189.5C 636.487,188.473 635.987,187.473 635.5,186.5C 633.052,185.527 630.385,185.194 627.5,185.5C 630.083,184.776 632.749,183.943 635.5,183C 634.3,181.969 632.966,181.135 631.5,180.5C 627.547,181.362 623.547,181.695 619.5,181.5C 623.761,179.984 628.094,178.651 632.5,177.5 Z"/></g>
<g><path style="opacity:1" fill="#857058" d="M 743.5,176.5 C 745.134,175.839 746.967,175.506 749,175.5C 752.451,175.421 755.618,176.087 758.5,177.5C 753.527,176.836 748.527,176.503 743.5,176.5 Z"/></g>
<g><path style="opacity:1" fill="#8e5846" d="M 529.5,153.5 C 529.334,158.179 529.501,162.845 530,167.5C 536.998,177.436 544.831,178.103 553.5,169.5C 555.028,169.517 555.528,170.184 555,171.5C 548.495,178.53 540.662,180.363 531.5,177C 530.619,176.292 529.953,175.458 529.5,174.5C 531.807,173.595 531.807,172.262 529.5,170.5C 528.184,164.68 528.184,159.013 529.5,153.5 Z"/></g>
<g><path style="opacity:1" fill="#3d2823" d="M 524.5,134.5 C 525.833,136.167 527.167,137.833 528.5,139.5C 522.747,142.336 518.247,146.669 515,152.5C 514.333,156.5 514.333,160.5 515,164.5C 515.308,165.308 515.808,165.975 516.5,166.5C 517.324,163.215 517.824,159.882 518,156.5C 518.057,159.851 518.891,162.851 520.5,165.5C 522.412,169.718 525.412,172.718 529.5,174.5C 529.953,175.458 530.619,176.292 531.5,177C 540.662,180.363 548.495,178.53 555,171.5C 555.528,170.184 555.028,169.517 553.5,169.5C 555.668,166.563 557.002,163.23 557.5,159.5C 557.92,162.616 558.92,165.283 560.5,167.5C 557.877,171.791 554.544,175.457 550.5,178.5C 548.804,178.685 547.471,179.519 546.5,181C 544,181.167 541.5,181.333 539,181.5C 533.213,180.609 527.379,179.443 521.5,178C 509.587,169.769 505.753,158.603 510,144.5C 512.844,138.325 517.677,134.992 524.5,134.5 Z"/></g>
<g><path style="opacity:1" fill="#c09b96" d="M 756.5,161.5 C 759.997,162.06 762.497,164.06 764,167.5C 764.688,168.332 764.521,168.998 763.5,169.5C 762.571,168.45 761.905,168.45 761.5,169.5C 760.85,166.201 759.184,163.535 756.5,161.5 Z"/></g>
<g><path style="opacity:1" fill="#2f2121" d="M 541.5,150.5 C 547.678,150.107 553.678,150.94 559.5,153C 561.232,155.645 562.899,158.145 564.5,160.5C 563.699,162.042 563.366,163.708 563.5,165.5C 562.5,166.167 561.5,166.833 560.5,167.5C 558.92,165.283 557.92,162.616 557.5,159.5C 557.002,163.23 555.668,166.563 553.5,169.5C 544.831,178.103 536.998,177.436 530,167.5C 529.501,162.845 529.334,158.179 529.5,153.5C 533.531,152.437 537.531,151.437 541.5,150.5 Z"/></g>
<g><path style="opacity:1" fill="#633a32" d="M 759.5,133.5 C 759.833,133.5 760.167,133.5 760.5,133.5C 759.412,145.653 761.079,157.32 765.5,168.5C 765.197,170.114 764.53,171.448 763.5,172.5C 762.094,172.027 761.427,171.027 761.5,169.5C 761.905,168.45 762.571,168.45 763.5,169.5C 764.521,168.998 764.688,168.332 764,167.5C 762.497,164.06 759.997,162.06 756.5,161.5C 754.273,160.599 753.273,158.933 753.5,156.5C 758.934,149.92 760.934,142.253 759.5,133.5 Z"/></g>
<g><path style="opacity:1" fill="#cbc6c1" d="M 678.5,154.5 C 677.517,155.85 676.184,156.85 674.5,157.5C 676.291,158.17 677.958,158.837 679.5,159.5C 676.17,160.666 672.837,160.666 669.5,159.5C 671.79,156.541 674.79,154.874 678.5,154.5 Z"/></g>
<g><path style="opacity:1" fill="#424a54" d="M 618.5,152.5 C 620.38,152.229 621.713,152.896 622.5,154.5C 621.962,156.117 621.629,157.784 621.5,159.5C 618.896,159.402 616.896,158.235 615.5,156C 615.978,154.358 616.978,153.191 618.5,152.5 Z"/></g>
<g><path style="opacity:1" fill="#402c2a" d="M 603.5,147.5 C 606.518,147.335 609.518,147.502 612.5,148C 614.526,149.594 616.526,151.094 618.5,152.5C 616.978,153.191 615.978,154.358 615.5,156C 616.896,158.235 618.896,159.402 621.5,159.5C 621.629,157.784 621.962,156.117 622.5,154.5C 627.198,157.311 628.532,161.311 626.5,166.5C 623.709,169.896 620.042,171.729 615.5,172C 613.953,174.787 611.953,177.12 609.5,179C 599.622,182.43 593.622,179.097 591.5,169C 592.205,164.477 593.038,159.977 594,155.5C 596.766,152.223 599.933,149.557 603.5,147.5 Z"/></g>
<g><path style="opacity:1" fill="#e9e7e7" d="M 679.5,159.5 C 677.958,158.837 676.291,158.17 674.5,157.5C 676.184,156.85 677.517,155.85 678.5,154.5C 679.058,153.21 680.058,152.377 681.5,152C 688.5,150 695.5,150 702.5,152C 704.019,153.351 705.352,154.851 706.5,156.5C 703.706,158.984 700.373,160.151 696.5,160C 690.651,160.818 684.985,160.652 679.5,159.5 Z"/></g>
<g><path style="opacity:1" fill="#a66048" d="M 771.5,139.5 C 775.335,141.153 777.169,144.153 777,148.5C 777.921,152.711 777.421,156.711 775.5,160.5C 774.281,159.737 773.281,158.737 772.5,157.5C 771.504,151.537 771.171,145.537 771.5,139.5 Z"/></g>
<g><path style="opacity:1" fill="#f0eff2" d="M 753.5,156.5 C 753.273,158.933 754.273,160.599 756.5,161.5C 759.184,163.535 760.85,166.201 761.5,169.5C 761.427,171.027 762.094,172.027 763.5,172.5C 763.5,173.5 763.5,174.5 763.5,175.5C 756.472,173.821 749.472,172.821 742.5,172.5C 743.864,167.795 743.697,163.128 742,158.5C 739.167,155.667 736.333,152.833 733.5,150C 730.027,148.047 726.361,146.547 722.5,145.5C 725.212,142.483 728.545,140.15 732.5,138.5C 734.288,140.791 736.288,142.957 738.5,145C 744.298,147.986 749.298,151.82 753.5,156.5 Z"/></g>
<g><path style="opacity:1" fill="#704d40" d="M 561.5,147.5 C 563.705,149.363 565.039,151.697 565.5,154.5C 566.833,154.5 568.167,154.5 569.5,154.5C 569.719,155.675 569.386,156.675 568.5,157.5C 566.739,158.035 565.406,159.035 564.5,160.5C 562.899,158.145 561.232,155.645 559.5,153C 553.678,150.94 547.678,150.107 541.5,150.5C 546.349,149.834 551.349,149.167 556.5,148.5C 552.719,147.517 549.053,146.35 545.5,145C 551.035,145.09 556.368,145.923 561.5,147.5 Z"/></g>
<g><path style="opacity:1" fill="#8f5e47" d="M 551.5,135.5 C 551.423,136.75 550.756,137.583 549.5,138C 546.774,138.182 544.107,138.682 541.5,139.5C 541.977,140.478 542.643,141.311 543.5,142C 543.167,142.333 542.833,142.667 542.5,143C 527.97,143.718 520.637,151.218 520.5,165.5C 518.891,162.851 518.057,159.851 518,156.5C 517.824,159.882 517.324,163.215 516.5,166.5C 515.808,165.975 515.308,165.308 515,164.5C 514.333,160.5 514.333,156.5 515,152.5C 518.247,146.669 522.747,142.336 528.5,139.5C 530.735,139.795 532.735,139.461 534.5,138.5C 540.205,137.709 545.871,136.709 551.5,135.5 Z"/></g>
<g><path style="opacity:1" fill="#a96349" d="M 551.5,135.5 C 551.833,135.5 552.167,135.5 552.5,135.5C 559.442,136.143 566.442,137.143 573.5,138.5C 573.67,139.822 573.337,140.989 572.5,142C 568.642,143.752 564.975,145.585 561.5,147.5C 556.368,145.923 551.035,145.09 545.5,145C 549.053,146.35 552.719,147.517 556.5,148.5C 551.349,149.167 546.349,149.834 541.5,150.5C 537.531,151.437 533.531,152.437 529.5,153.5C 528.184,159.013 528.184,164.68 529.5,170.5C 531.807,172.262 531.807,173.595 529.5,174.5C 525.412,172.718 522.412,169.718 520.5,165.5C 520.637,151.218 527.97,143.718 542.5,143C 542.833,142.667 543.167,142.333 543.5,142C 542.643,141.311 541.977,140.478 541.5,139.5C 544.107,138.682 546.774,138.182 549.5,138C 550.756,137.583 551.423,136.75 551.5,135.5 Z"/></g>
<g><path style="opacity:1" fill="#77645c" d="M 563.5,248.5 C 565.626,249.048 567.626,249.715 569.5,250.5C 568.504,250.414 567.671,250.748 567,251.5C 566.137,259.564 566.47,267.564 568,275.5C 569.333,276.167 570.333,277.167 571,278.5C 571.415,284.495 572.915,290.161 575.5,295.5C 576.167,296.833 576.833,298.167 577.5,299.5C 572.096,297.029 566.763,294.362 561.5,291.5C 563.764,292.219 566.097,292.552 568.5,292.5C 567.14,285.485 565.64,278.485 564,271.5C 563.5,263.841 563.334,256.174 563.5,248.5 Z"/></g>
<g><path style="opacity:1" fill="#d9cdbf" d="M 739.5,260.5 C 741.752,260.916 743.252,262.249 744,264.5C 745.697,271.755 746.864,279.088 747.5,286.5C 747.822,292.358 747.489,298.025 746.5,303.5C 746.229,301.57 745.229,300.236 743.5,299.5C 744.822,296.232 745.489,292.565 745.5,288.5C 744.992,281.126 744.159,273.793 743,266.5C 742.617,265.944 742.117,265.611 741.5,265.5C 740.833,263.833 740.167,262.167 739.5,260.5 Z"/></g>
<g><path style="opacity:1" fill="#cfb389" d="M 575.5,295.5 C 580.033,296.844 584.7,298.011 589.5,299C 600.929,299.668 612.263,300.835 623.5,302.5C 630.68,300.346 638.013,299.013 645.5,298.5C 641.142,300.597 636.476,302.097 631.5,303C 621.882,304.577 612.215,305.744 602.5,306.5C 593.311,306.79 584.978,304.456 577.5,299.5C 576.833,298.167 576.167,296.833 575.5,295.5 Z"/></g>
<g><path style="opacity:1" fill="#4d3430" d="M 522.5,272.5 C 524.98,292.223 529.647,311.389 536.5,330C 539.475,330.044 542.475,329.877 545.5,329.5C 545.334,322.825 545.5,316.158 546,309.5C 546.189,305.233 547.023,301.233 548.5,297.5C 548.294,308.511 547.794,319.511 547,330.5C 541.421,332.656 535.588,333.656 529.5,333.5C 528.599,329.684 527.099,326.017 525,322.5C 521.555,320.993 519.722,318.326 519.5,314.5C 520.434,313.432 520.768,312.099 520.5,310.5C 520.333,299.495 520.5,288.495 521,277.5C 521.198,275.618 521.698,273.952 522.5,272.5 Z"/></g>
<g><path style="opacity:1" fill="#9e918c" d="M 747.5,286.5 C 748.49,292.816 749.156,299.316 749.5,306C 749.621,309.782 748.954,313.282 747.5,316.5C 746.539,314.735 746.205,312.735 746.5,310.5C 746.5,308.167 746.5,305.833 746.5,303.5C 747.489,298.025 747.822,292.358 747.5,286.5 Z"/></g>
<g><path style="opacity:1" fill="#756661" d="M 746.5,310.5 C 746.205,312.735 746.539,314.735 747.5,316.5C 746.839,326.667 743.172,335.5 736.5,343C 733.847,344.655 731.514,346.655 729.5,349C 728.5,349.667 727.5,349.667 726.5,349C 729.372,346.463 731.872,343.63 734,340.5C 738.499,330.519 742.666,320.519 746.5,310.5 Z"/></g>
</svg>
